<svg width="135" height="29" viewBox="0 0 135 29" fill="none" xmlns="http://www.w3.org/2000/svg">
<path d="M35.2109 23V11H38.9219V13.1875H39.0469C39.2656 12.3958 39.6224 11.8073 40.1172 11.4219C40.612 11.0312 41.1875 10.8359 41.8438 10.8359C42.0208 10.8359 42.2031 10.849 42.3906 10.875C42.5781 10.8958 42.7526 10.9297 42.9141 10.9766V14.2969C42.7318 14.2344 42.4922 14.1849 42.1953 14.1484C41.9036 14.112 41.6432 14.0937 41.4141 14.0937C40.9609 14.0937 40.5521 14.1953 40.1875 14.3984C39.8281 14.5964 39.5443 14.875 39.3359 15.2344C39.1328 15.5885 39.0313 16.0052 39.0313 16.4844V23H35.2109Z" fill="black"/>
<path d="M46.3828 26.5C45.9609 26.5 45.5651 26.4661 45.1953 26.3984C44.8307 26.3359 44.5286 26.2552 44.2891 26.1562L45.0391 23.6719C45.4297 23.7917 45.7813 23.8568 46.0938 23.8672C46.4115 23.8776 46.6849 23.8047 46.9141 23.6484C47.1484 23.4922 47.3385 23.2266 47.4844 22.8516L47.6797 22.3438L43.375 10H46.875L49.3594 18.8125H49.4844L51.9922 10H55.5156L50.8516 23.2969C50.6276 23.9427 50.3229 24.5052 49.9375 24.9844C49.5573 25.4688 49.0755 25.8411 48.4922 26.1016C47.9089 26.3672 47.2057 26.5 46.3828 26.5Z" fill="black"/>
<path d="M10.5281 11.0835C10.4627 10.4246 10.1823 9.91276 9.68679 9.54794C9.19129 9.18312 8.51882 9.00071 7.66939 9.00071C7.09221 9.00071 6.60488 9.08239 6.20739 9.24574C5.8099 9.40365 5.50497 9.62417 5.29261 9.90731C5.0857 10.1905 4.98224 10.5117 4.98224 10.8711C4.97135 11.1706 5.03397 11.4319 5.1701 11.6552C5.31167 11.8784 5.50497 12.0717 5.75 12.2351C5.99503 12.393 6.27817 12.5318 6.59943 12.6516C6.92069 12.766 7.26373 12.864 7.62855 12.9457L9.13139 13.305C9.86103 13.4684 10.5308 13.6862 11.1406 13.9585C11.7505 14.2307 12.2786 14.5656 12.7251 14.9631C13.1716 15.3606 13.5174 15.8288 13.7624 16.3679C14.0129 16.907 14.1409 17.525 14.1463 18.2219C14.1409 19.2456 13.8795 20.1332 13.3622 20.8846C12.8504 21.6306 12.1098 22.2105 11.1406 22.6243C10.1768 23.0327 9.01432 23.2369 7.65305 23.2369C6.30268 23.2369 5.12654 23.0299 4.12464 22.6161C3.1282 22.2023 2.34955 21.5897 1.78871 20.7784C1.23331 19.9616 0.941998 18.9516 0.914773 17.7482H4.337C4.37512 18.3091 4.53575 18.7773 4.81889 19.1531C5.10748 19.5233 5.49136 19.8037 5.97053 19.9943C6.45514 20.1795 7.00237 20.272 7.61222 20.272C8.21117 20.272 8.73118 20.1849 9.17223 20.0107C9.61873 19.8364 9.96449 19.5941 10.2095 19.2837C10.4545 18.9734 10.5771 18.6167 10.5771 18.2138C10.5771 17.8381 10.4654 17.5223 10.2422 17.2663C10.0244 17.0104 9.70313 16.7926 9.27841 16.6129C8.85914 16.4332 8.34458 16.2699 7.73473 16.1229L5.91335 15.6655C4.50308 15.3224 3.38956 14.7861 2.5728 14.0565C1.75604 13.3268 1.35038 12.344 1.35582 11.108C1.35038 10.0952 1.61991 9.21035 2.16442 8.45348C2.71437 7.69661 3.46851 7.10582 4.42685 6.68111C5.38518 6.25639 6.4742 6.04403 7.69389 6.04403C8.93537 6.04403 10.0189 6.25639 10.9446 6.68111C11.8757 7.10582 12.5999 7.69661 13.1172 8.45348C13.6345 9.21035 13.9013 10.087 13.9176 11.0835H10.5281Z" fill="black"/>
<path d="M65.5281 11.0835C65.4627 10.4246 65.1823 9.91276 64.6868 9.54794C64.1913 9.18312 63.5188 9.00071 62.6694 9.00071C62.0922 9.00071 61.6049 9.08239 61.2074 9.24574C60.8099 9.40365 60.505 9.62417 60.2926 9.90731C60.0857 10.1905 59.9822 10.5117 59.9822 10.8711C59.9714 11.1706 60.034 11.4319 60.1701 11.6552C60.3117 11.8784 60.505 12.0717 60.75 12.2351C60.995 12.393 61.2782 12.5318 61.5994 12.6516C61.9207 12.766 62.2637 12.864 62.6286 12.9457L64.1314 13.305C64.861 13.4684 65.5308 13.6862 66.1406 13.9585C66.7505 14.2307 67.2786 14.5656 67.7251 14.9631C68.1716 15.3606 68.5174 15.8288 68.7624 16.3679C69.0129 16.907 69.1409 17.525 69.1463 18.2219C69.1409 19.2456 68.8795 20.1332 68.3622 20.8846C67.8504 21.6306 67.1098 22.2105 66.1406 22.6243C65.1768 23.0327 64.0143 23.2369 62.6531 23.2369C61.3027 23.2369 60.1265 23.0299 59.1246 22.6161C58.1282 22.2023 57.3496 21.5897 56.7887 20.7784C56.2333 19.9616 55.942 18.9516 55.9148 17.7482H59.337C59.3751 18.3091 59.5357 18.7773 59.8189 19.1531C60.1075 19.5233 60.4914 19.8037 60.9705 19.9943C61.4551 20.1795 62.0024 20.272 62.6122 20.272C63.2112 20.272 63.7312 20.1849 64.1722 20.0107C64.6187 19.8364 64.9645 19.5941 65.2095 19.2837C65.4545 18.9734 65.5771 18.6167 65.5771 18.2138C65.5771 17.8381 65.4654 17.5223 65.2422 17.2663C65.0244 17.0104 64.7031 16.7926 64.2784 16.6129C63.8591 16.4332 63.3446 16.2699 62.7347 16.1229L60.9134 15.6655C59.5031 15.3224 58.3896 14.7861 57.5728 14.0565C56.756 13.3268 56.3504 12.344 56.3558 11.108C56.3504 10.0952 56.6199 9.21035 57.1644 8.45348C57.7144 7.69661 58.4685 7.10582 59.4268 6.68111C60.3852 6.25639 61.4742 6.04403 62.6939 6.04403C63.9354 6.04403 65.0189 6.25639 65.9446 6.68111C66.8757 7.10582 67.5999 7.69661 68.1172 8.45348C68.6345 9.21035 68.9013 10.087 68.9176 11.0835H65.5281Z" fill="black"/>
<path d="M21.7109 11V13.5H14.4844V11H21.7109ZM16.125 8.125H19.4531V19.3125C19.4531 19.6198 19.5 19.8594 19.5938 20.0312C19.6875 20.1979 19.8177 20.3151 19.9844 20.3828C20.1563 20.4505 20.3542 20.4844 20.5781 20.4844C20.7344 20.4844 20.8906 20.4714 21.0469 20.4453C21.2031 20.4141 21.3229 20.3906 21.4063 20.375L21.9297 22.8516C21.763 22.9036 21.5286 22.9635 21.2266 23.0313C20.9245 23.1042 20.5573 23.1484 20.125 23.1641C19.3229 23.1953 18.6198 23.0885 18.0156 22.8437C17.4167 22.599 16.9505 22.2187 16.6172 21.7031C16.2839 21.1875 16.1198 20.5365 16.125 19.75V8.125Z" fill="black"/>
<path d="M28.0568 23.245C26.7881 23.245 25.6909 22.9755 24.7653 22.4364C23.8451 21.8919 23.1345 21.1351 22.6335 20.1658C22.1326 19.1912 21.8821 18.0613 21.8821 16.7763C21.8821 15.4804 22.1326 14.3478 22.6335 13.3786C23.1345 12.4039 23.8451 11.647 24.7653 11.108C25.6909 10.5634 26.7881 10.2912 28.0568 10.2912C29.3255 10.2912 30.42 10.5634 31.3402 11.108C32.2659 11.647 32.9792 12.4039 33.4801 13.3786C33.9811 14.3478 34.2315 15.4804 34.2315 16.7763C34.2315 18.0613 33.9811 19.1912 33.4801 20.1658C32.9792 21.1351 32.2659 21.8919 31.3402 22.4364C30.42 22.9755 29.3255 23.245 28.0568 23.245ZM28.0732 20.5497C28.6503 20.5497 29.1322 20.3864 29.5188 20.0597C29.9054 19.7275 30.1967 19.2756 30.3928 18.7038C30.5942 18.1321 30.695 17.4814 30.695 16.7518C30.695 16.0221 30.5942 15.3714 30.3928 14.7997C30.1967 14.228 29.9054 13.776 29.5188 13.4439C29.1322 13.1117 28.6503 12.9457 28.0732 12.9457C27.4905 12.9457 27.0005 13.1117 26.603 13.4439C26.2109 13.776 25.9142 14.228 25.7127 14.7997C25.5167 15.3714 25.4187 16.0221 25.4187 16.7518C25.4187 17.4814 25.5167 18.1321 25.7127 18.7038C25.9142 19.2756 26.2109 19.7275 26.603 20.0597C27.0005 20.3864 27.4905 20.5497 28.0732 20.5497Z" fill="black"/>
<path d="M77.0568 23.245C75.7718 23.245 74.6664 22.9728 73.7408 22.4283C72.8205 21.8783 72.1127 21.116 71.6172 20.1413C71.1271 19.1667 70.8821 18.045 70.8821 16.7763C70.8821 15.4912 71.1299 14.3641 71.6254 13.3949C72.1263 12.4202 72.8369 11.6606 73.7571 11.1161C74.6773 10.5662 75.7718 10.2912 77.0405 10.2912C78.1349 10.2912 79.0933 10.4899 79.9155 10.8874C80.7377 11.2849 81.3884 11.843 81.8675 12.5618C82.3467 13.2805 82.6108 14.1245 82.6598 15.0938H79.3764C79.2839 14.4676 79.0388 13.9639 78.6413 13.5827C78.2493 13.1961 77.7347 13.0028 77.0977 13.0028C76.5586 13.0028 76.0876 13.1499 75.6847 13.4439C75.2872 13.7325 74.9768 14.1545 74.7536 14.7099C74.5303 15.2653 74.4187 15.9377 74.4187 16.7273C74.4187 17.5277 74.5276 18.2083 74.7454 18.7692C74.9686 19.33 75.2817 19.7575 75.6847 20.0515C76.0876 20.3455 76.5586 20.4925 77.0977 20.4925C77.4951 20.4925 77.8518 20.4109 78.1676 20.2475C78.4889 20.0842 78.753 19.8473 78.9599 19.5369C79.1722 19.2211 79.3111 18.8427 79.3764 18.4016H82.6598C82.6054 19.36 82.344 20.204 81.8757 20.9336C81.4129 21.6578 80.7731 22.2241 79.9563 22.6325C79.1396 23.0408 78.1731 23.245 77.0568 23.245Z" fill="black"/>
<path d="M87.9659 23.2369C87.1655 23.2369 86.4522 23.098 85.826 22.8203C85.1998 22.5372 84.7043 22.1206 84.3395 21.5707C83.9801 21.0153 83.8004 20.3237 83.8004 19.4961C83.8004 18.7991 83.9284 18.2138 84.1843 17.7401C84.4402 17.2663 84.7887 16.8852 85.2298 16.5966C85.6708 16.308 86.1718 16.0902 86.7326 15.9432C87.2989 15.7962 87.8924 15.6927 88.5131 15.6328C89.2428 15.5566 89.8308 15.4858 90.2773 15.4205C90.7238 15.3497 91.0478 15.2462 91.2493 15.1101C91.4508 14.974 91.5515 14.7725 91.5515 14.5057V14.4567C91.5515 13.9394 91.3881 13.5392 91.0614 13.256C90.7402 12.9729 90.2828 12.8313 89.6893 12.8313C89.0631 12.8313 88.5649 12.9702 88.1946 13.2479C87.8243 13.5201 87.5793 13.8632 87.4595 14.277L84.2415 14.0156C84.4048 13.2533 84.7261 12.5945 85.2053 12.0391C85.6844 11.4782 86.3024 11.0481 87.0593 10.7486C87.8216 10.4437 88.7037 10.2912 89.7056 10.2912C90.4026 10.2912 91.0696 10.3729 91.7067 10.5362C92.3492 10.6996 92.9182 10.9528 93.4137 11.2958C93.9147 11.6388 94.3094 12.0799 94.598 12.619C94.8866 13.1526 95.0309 13.7924 95.0309 14.5384V23H91.7312V21.2603H91.6332C91.4317 21.6523 91.1622 21.9981 90.8246 22.2976C90.487 22.5916 90.0813 22.823 89.6076 22.9918C89.1339 23.1552 88.5866 23.2369 87.9659 23.2369ZM88.9624 20.8356C89.4742 20.8356 89.9261 20.7348 90.3182 20.5334C90.7102 20.3265 91.0179 20.0488 91.2411 19.7003C91.4644 19.3518 91.576 18.957 91.576 18.516V17.1847C91.4671 17.2554 91.3174 17.3208 91.1268 17.3807C90.9416 17.4351 90.732 17.4869 90.4979 17.5359C90.2637 17.5794 90.0296 17.6203 89.7955 17.6584C89.5613 17.6911 89.349 17.721 89.1584 17.7482C88.75 17.8081 88.3933 17.9034 88.0884 18.0341C87.7835 18.1648 87.5466 18.3417 87.3778 18.565C87.209 18.7828 87.1246 19.055 87.1246 19.3817C87.1246 19.8555 87.2962 20.2176 87.6392 20.468C87.9877 20.7131 88.4287 20.8356 88.9624 20.8356Z" fill="black"/>
<path d="M97.3885 27.7045V10.4545H100.819V12.5618H100.974C101.127 12.2242 101.347 11.8812 101.636 11.5327C101.93 11.1787 102.311 10.8847 102.779 10.6506C103.253 10.411 103.841 10.2912 104.543 10.2912C105.458 10.2912 106.302 10.5308 107.075 11.0099C107.848 11.4837 108.467 12.1997 108.929 13.158C109.392 14.1109 109.624 15.3061 109.624 16.7436C109.624 18.143 109.398 19.3246 108.946 20.2884C108.499 21.2467 107.889 21.9736 107.116 22.4691C106.348 22.9592 105.488 23.2042 104.535 23.2042C103.86 23.2042 103.286 23.0926 102.812 22.8693C102.344 22.6461 101.96 22.3656 101.66 22.0281C101.361 21.685 101.132 21.3393 100.974 20.9908H100.868V27.7045H97.3885ZM100.794 16.7273C100.794 17.4732 100.898 18.1239 101.105 18.6793C101.312 19.2347 101.611 19.6676 102.003 19.978C102.395 20.2829 102.872 20.4354 103.433 20.4354C103.999 20.4354 104.478 20.2802 104.87 19.9698C105.262 19.654 105.559 19.2184 105.76 18.663C105.967 18.1022 106.071 17.4569 106.071 16.7273C106.071 16.0031 105.97 15.366 105.768 14.8161C105.567 14.2661 105.27 13.8359 104.878 13.5256C104.486 13.2152 104.004 13.06 103.433 13.06C102.866 13.06 102.387 13.2098 101.995 13.5092C101.608 13.8087 101.312 14.2334 101.105 14.7834C100.898 15.3333 100.794 15.9813 100.794 16.7273Z" fill="black"/>
<path d="M116.106 23.245C114.815 23.245 113.705 22.9837 112.773 22.4609C111.848 21.9328 111.134 21.1868 110.634 20.223C110.133 19.2538 109.882 18.1076 109.882 16.7844C109.882 15.494 110.133 14.3614 110.634 13.3867C111.134 12.4121 111.84 11.6525 112.749 11.108C113.664 10.5634 114.736 10.2912 115.967 10.2912C116.795 10.2912 117.565 10.4246 118.278 10.6914C118.997 10.9528 119.623 11.3475 120.157 11.8757C120.696 12.4039 121.115 13.0682 121.415 13.8686C121.714 14.6636 121.864 15.5947 121.864 16.6619V17.6175H111.271V15.4613H118.589C118.589 14.9603 118.48 14.5166 118.262 14.13C118.044 13.7434 117.742 13.4412 117.355 13.2234C116.974 13.0001 116.531 12.8885 116.024 12.8885C115.496 12.8885 115.028 13.011 114.619 13.256C114.216 13.4956 113.901 13.8196 113.672 14.228C113.443 14.6309 113.326 15.0801 113.321 15.5756V17.6257C113.321 18.2464 113.435 18.7828 113.664 19.2347C113.898 19.6867 114.227 20.0352 114.652 20.2802C115.077 20.5252 115.58 20.6477 116.163 20.6477C116.55 20.6477 116.904 20.5933 117.225 20.4844C117.546 20.3755 117.821 20.2121 118.05 19.9943C118.278 19.7765 118.453 19.5097 118.572 19.1939L121.79 19.4062C121.627 20.1795 121.292 20.8546 120.786 21.4318C120.285 22.0036 119.637 22.45 118.842 22.7713C118.052 23.0871 117.14 23.245 116.106 23.245Z" fill="black"/>
<g filter="url(#filter0_d_8_20)">
<path d="M130.5 7.5C130.5 8.88071 129.381 10 128 10C126.619 10 125.5 8.88071 125.5 7.5C125.5 6.11929 126.619 5 128 5C129.381 5 130.5 6.11929 130.5 7.5Z" fill="#F77D88"/>
</g>
<defs>
<filter id="filter0_d_8_20" x="121.5" y="5" width="13" height="13" filterUnits="userSpaceOnUse" color-interpolation-filters="sRGB">
<feFlood flood-opacity="0" result="BackgroundImageFix"/>
<feColorMatrix in="SourceAlpha" type="matrix" values="0 0 0 0 0 0 0 0 0 0 0 0 0 0 0 0 0 0 127 0" result="hardAlpha"/>
<feOffset dy="4"/>
<feGaussianBlur stdDeviation="2"/>
<feComposite in2="hardAlpha" operator="out"/>
<feColorMatrix type="matrix" values="0 0 0 0 0 0 0 0 0 0 0 0 0 0 0 0 0 0 0.25 0"/>
<feBlend mode="normal" in2="BackgroundImageFix" result="effect1_dropShadow_8_20"/>
<feBlend mode="normal" in="SourceGraphic" in2="effect1_dropShadow_8_20" result="shape"/>
</filter>
</defs>
</svg>
